<?xml version="1.0" standalone="no"?>
<!DOCTYPE svg PUBLIC "-//W3C//DTD SVG 20010904//EN"
 "http://www.w3.org/TR/2001/REC-SVG-20010904/DTD/svg10.dtd">
<svg version="1.0" xmlns="http://www.w3.org/2000/svg"
 width="512.000000pt" height="512.000000pt" viewBox="0 0 512.000000 512.000000"
 preserveAspectRatio="xMidYMid meet">

<g transform="translate(0.000000,512.000000) scale(0.100000,-0.100000)"
fill="#000000" stroke="none">
<path d="M779 4576 c-102 -27 -171 -87 -218 -186 l-26 -55 0 -1350 0 -1350 26
-56 c33 -69 89 -127 155 -160 l49 -24 1370 0 1370 0 50 27 c60 32 114 87 146
148 l24 45 0 1370 0 1370 -24 49 c-33 66 -91 122 -160 155 l-56 26 -1330 2
c-1033 1 -1340 -1 -1376 -11z m2707 -240 l34 -34 -2 -1321 -3 -1321 -28 -27
-27 -28 -1321 -3 -1321 -2 -34 34 -34 34 0 1322 0 1322 29 29 29 29 1322 0
1322 0 34 -34z"/>
<path d="M1645 3541 c-40 -18 -70 -60 -70 -102 0 -38 8 -47 205 -244 l205
-205 -197 -197 c-108 -109 -202 -211 -208 -227 -24 -65 30 -136 103 -136 40 0
47 6 242 200 110 110 205 200 210 200 5 0 100 -90 210 -200 196 -195 202 -200
242 -200 59 0 103 44 103 103 0 40 -5 46 -200 242 -110 110 -200 205 -200 210
0 5 90 100 200 210 194 195 200 202 200 242 0 73 -71 127 -136 103 -16 -6
-118 -100 -227 -208 l-197 -197 -203 202 c-208 208 -232 226 -282 204z"/>
<path d="M4428 4144 c-15 -8 -33 -24 -40 -37 -10 -17 -14 -307 -18 -1392 l-5
-1370 -31 -88 c-45 -124 -87 -190 -184 -287 -97 -97 -163 -139 -287 -184 l-88
-31 -1155 -5 c-902 -4 -1160 -8 -1177 -18 -34 -19 -53 -53 -53 -93 0 -47 30
-85 78 -99 26 -8 374 -10 1162 -8 1037 4 1131 5 1200 22 94 22 204 67 294 120
84 50 222 178 282 262 59 83 128 231 156 334 l22 85 4 1345 c2 967 0 1356 -8
1383 -19 65 -92 94 -152 61z"/>
</g>
</svg>
